<?xml version="1.0" encoding="iso-8859-1"?>
<!-- Generator: Adobe Illustrator 19.0.0, SVG Export Plug-In . SVG Version: 6.00 Build 0)  -->
<svg version="1.1" id="Layer_1" xmlns="http://www.w3.org/2000/svg" xmlns:xlink="http://www.w3.org/1999/xlink" x="0px" y="0px"
	 viewBox="0 0 512.001 512.001" style="enable-background:new 0 0 512.001 512.001;" xml:space="preserve">
<path style="fill:#5B5D6E;" d="M273.657,256h-26.483v-17.655c0-4.875,3.953-8.828,8.828-8.828h8.828
	c4.875,0,8.828,3.953,8.828,8.828V256z"/>
<path style="fill:#82889D;" d="M273.657,247.173H210.35c-4.682,0-9.173,1.86-12.484,5.171l-21.312,21.312h105.931V256
	C282.485,251.125,278.532,247.173,273.657,247.173z"/>
<path style="fill:#B8E9FF;" d="M489.799,341.13c-16.628-10.241-61.431-23.337-136.693-23.337l-30.903-37.083
	c-8.386-10.063-20.809-15.882-33.908-15.882H164.217c-9.199,0-18.168,2.874-25.654,8.222L88.28,308.966l-63.743,7.083
	c-8.941,0.993-15.705,8.551-15.705,17.547v63.646l123.586,17.655h370.757v-49.903C503.173,355.234,498.109,346.248,489.799,341.13z"
	/>
<g>
	<path style="fill:#00D2FF;" d="M353.105,317.793l-30.904-37.085c-8.386-10.063-20.808-15.881-33.907-15.881H164.217
		c-9.199,0-18.169,2.874-25.655,8.222l-50.283,35.916c-0.003,0.042,1.71,0.314,4.57,0.74c36.469,5.432,73.297,8.087,110.168,8.087
		H353.105z"/>
	<path style="fill:#00D2FF;" d="M503.173,370.759c0-17.655-26.483-35.31-150.068-35.31H20.98c-6.71,0-12.149,5.439-12.149,12.149
		v58.471l158.896,17.655h335.447V370.759z"/>
</g>
<path style="fill:#00AAD7;" d="M503.173,406.069H97.106c-0.049,0-0.088,0.026-0.137,0.028c0.001-4.441-3.201-8.3-7.717-8.799
	L9.804,388.47c-4.733-0.543-9.207,2.953-9.75,7.797c-0.534,4.845,2.957,9.212,7.801,9.746l79.448,8.828
	c0.324,0.039,0.649,0.055,0.974,0.055l0,0c0,4.875,3.948,8.828,8.828,8.828h406.067c4.879,0,8.828-3.953,8.828-8.828
	C512,410.02,508.053,406.069,503.173,406.069z"/>
<circle style="fill:#D7DEED;" cx="423.723" cy="406.068" r="44.138"/>
<path style="fill:#464655;" d="M423.725,459.034c-29.207,0-52.965-23.758-52.965-52.965s23.758-52.965,52.965-52.965
	c29.207,0,52.965,23.758,52.965,52.965S452.933,459.034,423.725,459.034z M423.725,370.759c-19.474,0-35.31,15.837-35.31,35.31
	s15.837,35.31,35.31,35.31c19.474,0,35.31-15.837,35.31-35.31S443.2,370.759,423.725,370.759z"/>
<circle style="fill:#B8BFD4;" cx="423.723" cy="406.068" r="17.655"/>
<circle style="fill:#D7DEED;" cx="97.104" cy="406.068" r="44.138"/>
<path style="fill:#464655;" d="M97.106,459.034c-29.207,0-52.965-23.758-52.965-52.965s23.758-52.965,52.965-52.965
	s52.965,23.758,52.965,52.965S126.313,459.034,97.106,459.034z M97.106,370.759c-19.474,0-35.31,15.837-35.31,35.31
	s15.837,35.31,35.31,35.31s35.31-15.837,35.31-35.31S116.581,370.759,97.106,370.759z"/>
<circle style="fill:#B8BFD4;" cx="97.104" cy="406.068" r="17.655"/>
<g>
	<path style="fill:#5B5D6E;" d="M314.732,273.656h-13.934c-3.822,0-5.948,4.421-3.56,7.406l29.385,36.731h26.483l-30.903-37.083
		C319.98,278.043,317.458,275.697,314.732,273.656z"/>
	<path style="fill:#5B5D6E;" d="M265.172,273.656h-76.847c-7.64,0-15.074,2.478-21.186,7.062l-19.242,14.431
		c-3.732,2.799-4.628,8.026-2.04,11.908l5.967,8.951c17.035,1.152,34.107,1.785,51.193,1.785h105.952l-30.009-37.512
		C275.607,276.093,270.536,273.656,265.172,273.656z"/>
</g>
<g>
	<path style="fill:#00BEF0;" d="M353.105,388.414H167.727c-4.875,0-8.828-3.953-8.828-8.828l0,0c0-4.875,3.953-8.828,8.828-8.828
		h185.378c4.875,0,8.828,3.953,8.828,8.828l0,0C361.933,384.461,357.98,388.414,353.105,388.414z"/>
	<path style="fill:#00BEF0;" d="M503.173,388.414h-8.828c-4.875,0-8.828-3.953-8.828-8.828l0,0c0-4.875,3.953-8.828,8.828-8.828
		h8.828c4.875,0,8.828,3.953,8.828,8.828l0,0C512.001,384.461,508.048,388.414,503.173,388.414z"/>
</g>
<g>
	<circle style="fill:#82889D;" cx="260.414" cy="198.62" r="13.241"/>
	<path style="fill:#82889D;" d="M294.75,173.118c-2.259,0-4.518-0.862-6.241-2.586c-7.509-7.505-17.483-11.634-28.095-11.634
		s-20.586,4.129-28.086,11.634c-3.448,3.448-9.035,3.448-12.483,0c-3.448-3.444-3.448-9.035,0-12.483
		c10.836-10.836,25.241-16.805,40.569-16.805s29.741,5.965,40.577,16.805c3.448,3.444,3.448,9.035,0,12.483
		C299.267,172.256,297.008,173.118,294.75,173.118z"/>
	<path style="fill:#82889D;" d="M325.956,141.907c-2.259,0-4.517-0.862-6.241-2.586c-32.707-32.69-85.896-32.69-118.603,0
		c-3.448,3.448-9.035,3.448-12.483,0c-3.448-3.448-3.448-9.035,0-12.483c39.586-39.577,103.982-39.577,143.568,0
		c3.448,3.448,3.448,9.035,0,12.483C330.473,141.044,328.215,141.907,325.956,141.907z"/>
	<path style="fill:#82889D;" d="M357.164,110.699c-2.259,0-4.518-0.862-6.241-2.586c-24.173-24.176-56.32-37.491-90.509-37.491
		s-66.336,13.314-90.508,37.492c-3.448,3.448-9.035,3.448-12.483,0c-3.448-3.448-3.448-9.035,0-12.483
		c27.509-27.513,64.086-42.664,102.991-42.664s75.482,15.15,102.991,42.664c3.448,3.448,3.448,9.035,0,12.483
		C361.68,109.837,359.422,110.699,357.164,110.699z"/>
</g>
<g>
</g>
<g>
</g>
<g>
</g>
<g>
</g>
<g>
</g>
<g>
</g>
<g>
</g>
<g>
</g>
<g>
</g>
<g>
</g>
<g>
</g>
<g>
</g>
<g>
</g>
<g>
</g>
<g>
</g>
</svg>
